<?xml version="1.0" standalone="no"?>
<!DOCTYPE svg PUBLIC "-//W3C//DTD SVG 20010904//EN"
 "http://www.w3.org/TR/2001/REC-SVG-20010904/DTD/svg10.dtd">
<svg version="1.0" xmlns="http://www.w3.org/2000/svg"
 width="200.000000pt" height="200.000000pt" viewBox="0 0 200.000000 200.000000"
 preserveAspectRatio="xMidYMid meet">
<metadata>
Created by potrace 1.14, written by Peter Selinger 2001-2017
</metadata>
<g transform="translate(0.000000,200.000000) scale(0.100000,-0.100000)"
fill="#000000" stroke="none">
<path d="M935 1441 c-27 -5 -77 -19 -110 -32 l-60 -24 2 -195 c1 -107 4 -239
8 -292 l6 -98 -25 0 c-32 0 -42 17 -22 39 21 23 20 40 -4 66 -18 19 -21 40
-27 225 l-6 204 -33 -38 c-96 -111 -96 -218 -2 -338 l41 -51 -25 -21 c-14 -12
-34 -27 -44 -33 -10 -7 -66 -46 -124 -86 -153 -106 -143 -125 65 -127 85 -1
91 -2 109 -26 18 -25 18 -28 2 -60 -21 -45 -20 -72 4 -109 11 -16 20 -41 20
-55 0 -14 9 -61 21 -105 11 -44 24 -109 29 -145 14 -97 47 -115 160 -89 62 14
82 35 74 73 -3 17 -9 35 -14 39 -8 9 10 93 28 125 9 15 22 22 42 22 37 0 58
-31 88 -127 31 -98 41 -107 116 -99 65 7 119 32 124 59 2 9 -2 29 -10 44 -10
22 -12 92 -8 330 5 296 5 302 28 325 26 29 28 53 5 62 -15 6 -15 8 0 19 9 6
32 37 51 67 25 37 36 48 36 34 0 -24 18 -44 41 -44 18 0 29 19 29 51 0 14 7
19 26 19 30 0 23 17 -11 30 -13 5 -32 24 -41 42 -9 18 -21 36 -27 39 -5 4 -15
22 -22 40 -48 139 -205 235 -399 244 -50 2 -113 0 -141 -4z m299 -264 c98 -45
124 -123 61 -183 -59 -56 -128 -50 -186 15 -20 23 -46 41 -57 41 -12 0 -35
-18 -54 -41 -55 -66 -140 -70 -192 -8 -32 38 -33 76 -3 119 44 66 125 91 279
86 77 -3 108 -9 152 -29z m-529 -374 c-4 -10 -7 -29 -6 -42 2 -44 -25 -61 -96
-61 -36 0 -63 4 -61 9 4 11 149 110 162 111 4 0 5 -8 1 -17z m97 -405 c-9 -9
-15 -9 -24 0 -9 9 -7 12 12 12 19 0 21 -3 12 -12z"/>
<path d="M870 1141 c0 -5 15 -15 33 -22 17 -7 35 -14 40 -17 4 -2 7 0 7 5 0 5
-16 17 -35 26 -41 20 -45 20 -45 8z"/>
<path d="M1176 1115 c-30 -28 -34 -41 -8 -26 27 16 52 38 52 45 0 13 -18 5
-44 -19z"/>
<path d="M863 1084 c-9 -24 21 -48 51 -40 34 8 33 22 -4 41 -36 19 -39 19 -47
-1z"/>
<path d="M1198 1084 c-35 -18 -35 -32 -2 -40 30 -8 60 16 51 40 -8 19 -14 19
-49 0z"/>
</g>
</svg>
